<?xml version="1.0" encoding="utf-8"?>
<!-- Generator: Adobe Illustrator 21.0.0, SVG Export Plug-In . SVG Version: 6.00 Build 0)  -->
<svg version="1.1" id="Layer_4" xmlns="http://www.w3.org/2000/svg" xmlns:xlink="http://www.w3.org/1999/xlink" x="0px" y="0px"
	 viewBox="0 0 26.6 27.8" style="enable-background:new 0 0 26.6 27.8;" xml:space="preserve">
<style type="text/css">
	.st0{fill:none;stroke:#F464D5;stroke-width:0.15;stroke-linecap:round;stroke-linejoin:round;}
</style>
<title>Artboard 7</title>
<path class="st0" d="M26.1,10.3c0,0,0.3,1.4,0.3,1.6c0.3,1.2,0.4,2.5,0.4,3.7c-0.1,1,0,3-0.2,3.6c-0.1,0.5-0.2,1.1-0.4,1.6
	c-0.3,0.8-1.2,0.9-1.8,1.2s-3.1,1.5-3.1,1.5l-5.6,2.7l-1.1,0.5l-1.5,0.7c-0.5,0.3-1,0.5-1.6,0.5c-0.5-0.2-1-0.5-1.4-0.9
	c0,0-1-0.7-1.3-0.8c-0.5-0.3-1.1-0.6-1.7-0.7c-0.6,0.1-1.2,0.1-1.8,0c-0.5-0.1-3.1-1-3.6-1.2c-0.4-0.1-0.8-0.4-1.2-0.7
	c-0.5-0.5-0.7-1.3-0.5-2c0.3-1.3,0.5-1.3,0.5-2s-0.1-2.1,0-2.3c0.2-0.7,0.5-1.4,0.9-2c0.6-0.5,1.3-0.8,2-0.8c1,0,2-0.2,2.9-0.6
	c0.8-0.3,0.7-0.5,0.9-0.5c0.2-0.1,0.4-0.1,0.6-0.2c0.4-0.1,0.7-0.4,0.9-0.8c0.6-1.1,1.3-2.2,2-3.2c0.1-0.2,0.3-0.3,0.5-0.3
	c0.6,0,1.2,0.1,1.9,0.1c0.2,0.1,0.4,0.3,0.2,0.9c-0.1,0.4-0.4,0.8-0.8,1.1c-0.3,0.2-0.7,0.1-0.9-0.1C11.1,10,10.9,9.1,11,8.3
	c0,0,0-0.2,0.3-0.3c0.4-0.2,0.8-0.4,1.2-0.4c0.5,0,0.9,0,1.3,0.1c0.4,0.1,0.7,0.1,1.1,0c0.5-0.2,0.8-0.7,0.9-1.2
	C16,6,15.9,5.6,15.6,5.4c-0.5-0.5-1-0.9-1.6-1.3c-0.5-0.2-1-0.4-1.6-0.4c-0.6,0-1.2-0.1-1.8-0.3C10.3,3.3,10,3.2,9.7,3
	C9.4,2.7,9.1,2.4,8.8,2C8.4,1.6,8,1.3,7.5,1C7.3,1,7.2,0.9,7,0.8C6.9,0.6,6.9,0.3,7.1,0.1c0.2-0.2,0.5,0,0.5,0.1
	c0,0.1,0,0.2-0.1,0.3c-0.1,0.1-0.4,0.1-0.4,0"/>
</svg>
